<mxfile host="app.diagrams.net" agent="Mozilla/5.0 (Windows NT 10.0; Win64; x64) AppleWebKit/537.36 (KHTML, like Gecko) Chrome/136.0.0.0 Safari/537.36 Avast/136.0.0.0" version="27.1.3">
  <diagram name="Page-1" id="SqyqoYTnqymPvnijJlAb">
    <mxGraphModel dx="1226" dy="620" grid="1" gridSize="10" guides="1" tooltips="1" connect="1" arrows="1" fold="1" page="1" pageScale="1" pageWidth="827" pageHeight="1169" math="0" shadow="0">
      <root>
        <mxCell id="0" />
        <mxCell id="1" parent="0" />
        <mxCell id="SoT8vlNb1tdtjhpSFp7B-1" value="VINOTEKA" style="rounded=0;whiteSpace=wrap;html=1;" parent="1" vertex="1">
          <mxGeometry x="120" width="320" height="30" as="geometry" />
        </mxCell>
        <mxCell id="SoT8vlNb1tdtjhpSFp7B-2" value="" style="endArrow=none;html=1;rounded=0;exitX=0;exitY=1;exitDx=0;exitDy=0;" parent="1" source="SoT8vlNb1tdtjhpSFp7B-1" edge="1">
          <mxGeometry width="50" height="50" relative="1" as="geometry">
            <mxPoint x="270" y="270" as="sourcePoint" />
            <mxPoint x="120" y="600" as="targetPoint" />
          </mxGeometry>
        </mxCell>
        <mxCell id="SoT8vlNb1tdtjhpSFp7B-3" value="" style="endArrow=none;html=1;rounded=0;entryX=1;entryY=1;entryDx=0;entryDy=0;" parent="1" target="SoT8vlNb1tdtjhpSFp7B-1" edge="1">
          <mxGeometry width="50" height="50" relative="1" as="geometry">
            <mxPoint x="440" y="600" as="sourcePoint" />
            <mxPoint x="320" y="220" as="targetPoint" />
          </mxGeometry>
        </mxCell>
        <mxCell id="SoT8vlNb1tdtjhpSFp7B-4" value="Djelatnik" style="shape=umlActor;verticalLabelPosition=bottom;verticalAlign=top;html=1;outlineConnect=0;" parent="1" vertex="1">
          <mxGeometry y="70" width="50" height="90" as="geometry" />
        </mxCell>
        <mxCell id="SoT8vlNb1tdtjhpSFp7B-5" value="Administrator" style="shape=umlActor;verticalLabelPosition=bottom;verticalAlign=top;html=1;outlineConnect=0;" parent="1" vertex="1">
          <mxGeometry x="510" y="40" width="50" height="90" as="geometry" />
        </mxCell>
        <mxCell id="SoT8vlNb1tdtjhpSFp7B-7" value="Sustav&amp;nbsp;" style="shape=umlActor;verticalLabelPosition=bottom;verticalAlign=top;html=1;outlineConnect=0;" parent="1" vertex="1">
          <mxGeometry x="530" y="470" width="40" height="80" as="geometry" />
        </mxCell>
        <mxCell id="SoT8vlNb1tdtjhpSFp7B-8" value="Dobavljač" style="shape=umlActor;verticalLabelPosition=bottom;verticalAlign=top;html=1;outlineConnect=0;" parent="1" vertex="1">
          <mxGeometry x="510" y="260" width="50" height="90" as="geometry" />
        </mxCell>
        <mxCell id="SoT8vlNb1tdtjhpSFp7B-9" value="&lt;font style=&quot;font-size: 10px;&quot;&gt;Preuzima robu i provjerava kvalitetu&lt;/font&gt;" style="ellipse;whiteSpace=wrap;html=1;" parent="1" vertex="1">
          <mxGeometry x="150" y="40" width="100" height="50" as="geometry" />
        </mxCell>
        <mxCell id="SoT8vlNb1tdtjhpSFp7B-10" value="&lt;font style=&quot;font-size: 10px;&quot;&gt;Savjetovanje kupaca&lt;/font&gt;" style="ellipse;whiteSpace=wrap;html=1;" parent="1" vertex="1">
          <mxGeometry x="155" y="100" width="80" height="40" as="geometry" />
        </mxCell>
        <mxCell id="SoT8vlNb1tdtjhpSFp7B-11" value="&lt;font style=&quot;font-size: 10px;&quot;&gt;Pakiranje narudžbi&lt;/font&gt;" style="ellipse;whiteSpace=wrap;html=1;" parent="1" vertex="1">
          <mxGeometry x="155" y="150" width="80" height="40" as="geometry" />
        </mxCell>
        <mxCell id="SoT8vlNb1tdtjhpSFp7B-12" value="&lt;font style=&quot;font-size: 10px;&quot;&gt;Organizacija događaja&lt;/font&gt;" style="ellipse;whiteSpace=wrap;html=1;" parent="1" vertex="1">
          <mxGeometry x="155" y="200" width="80" height="40" as="geometry" />
        </mxCell>
        <mxCell id="SoT8vlNb1tdtjhpSFp7B-13" value="&lt;font style=&quot;font-size: 10px;&quot;&gt;Upravljanje sustavom&lt;/font&gt;" style="ellipse;whiteSpace=wrap;html=1;" parent="1" vertex="1">
          <mxGeometry x="355" y="40" width="70" height="40" as="geometry" />
        </mxCell>
        <mxCell id="SoT8vlNb1tdtjhpSFp7B-14" value="&lt;font size=&quot;1&quot;&gt;Upravljanje korisnicima&lt;/font&gt;" style="ellipse;whiteSpace=wrap;html=1;" parent="1" vertex="1">
          <mxGeometry x="355" y="90" width="70" height="40" as="geometry" />
        </mxCell>
        <mxCell id="SoT8vlNb1tdtjhpSFp7B-15" value="&lt;font style=&quot;font-size: 10px;&quot;&gt;Isporuka naružbi&lt;/font&gt;" style="ellipse;whiteSpace=wrap;html=1;" parent="1" vertex="1">
          <mxGeometry x="324" y="250" width="90" height="40" as="geometry" />
        </mxCell>
        <mxCell id="SoT8vlNb1tdtjhpSFp7B-16" value="&lt;font style=&quot;font-size: 9px;&quot;&gt;Obavještavanje o novim proizvodima&lt;/font&gt;" style="ellipse;whiteSpace=wrap;html=1;" parent="1" vertex="1">
          <mxGeometry x="324" y="320" width="90" height="40" as="geometry" />
        </mxCell>
        <mxCell id="SoT8vlNb1tdtjhpSFp7B-20" value="&lt;span style=&quot;font-size: 10px;&quot;&gt;Obrada plaćanja&lt;/span&gt;" style="ellipse;whiteSpace=wrap;html=1;" parent="1" vertex="1">
          <mxGeometry x="350" y="430" width="80" height="40" as="geometry" />
        </mxCell>
        <mxCell id="SoT8vlNb1tdtjhpSFp7B-21" value="&lt;span style=&quot;font-size: 10px;&quot;&gt;Validacija transakcije&lt;/span&gt;" style="ellipse;whiteSpace=wrap;html=1;" parent="1" vertex="1">
          <mxGeometry x="350" y="495" width="80" height="40" as="geometry" />
        </mxCell>
        <mxCell id="SoT8vlNb1tdtjhpSFp7B-22" value="" style="endArrow=none;html=1;rounded=0;entryX=0;entryY=0.5;entryDx=0;entryDy=0;" parent="1" target="SoT8vlNb1tdtjhpSFp7B-9" edge="1">
          <mxGeometry width="50" height="50" relative="1" as="geometry">
            <mxPoint x="60" y="100" as="sourcePoint" />
            <mxPoint x="290" y="230" as="targetPoint" />
          </mxGeometry>
        </mxCell>
        <mxCell id="SoT8vlNb1tdtjhpSFp7B-23" value="" style="endArrow=none;html=1;rounded=0;entryX=0;entryY=0.5;entryDx=0;entryDy=0;" parent="1" target="SoT8vlNb1tdtjhpSFp7B-10" edge="1">
          <mxGeometry width="50" height="50" relative="1" as="geometry">
            <mxPoint x="60" y="110" as="sourcePoint" />
            <mxPoint x="290" y="230" as="targetPoint" />
          </mxGeometry>
        </mxCell>
        <mxCell id="SoT8vlNb1tdtjhpSFp7B-24" value="" style="endArrow=none;html=1;rounded=0;entryX=0;entryY=0.5;entryDx=0;entryDy=0;" parent="1" target="SoT8vlNb1tdtjhpSFp7B-11" edge="1">
          <mxGeometry width="50" height="50" relative="1" as="geometry">
            <mxPoint x="60" y="120" as="sourcePoint" />
            <mxPoint x="290" y="230" as="targetPoint" />
          </mxGeometry>
        </mxCell>
        <mxCell id="SoT8vlNb1tdtjhpSFp7B-25" value="" style="endArrow=none;html=1;rounded=0;entryX=0;entryY=0.5;entryDx=0;entryDy=0;" parent="1" target="SoT8vlNb1tdtjhpSFp7B-12" edge="1">
          <mxGeometry width="50" height="50" relative="1" as="geometry">
            <mxPoint x="60" y="130" as="sourcePoint" />
            <mxPoint x="290" y="230" as="targetPoint" />
          </mxGeometry>
        </mxCell>
        <mxCell id="SoT8vlNb1tdtjhpSFp7B-29" value="" style="endArrow=none;html=1;rounded=0;exitX=1;exitY=0.5;exitDx=0;exitDy=0;" parent="1" source="SoT8vlNb1tdtjhpSFp7B-13" edge="1">
          <mxGeometry width="50" height="50" relative="1" as="geometry">
            <mxPoint x="240" y="280" as="sourcePoint" />
            <mxPoint x="500" y="70" as="targetPoint" />
          </mxGeometry>
        </mxCell>
        <mxCell id="SoT8vlNb1tdtjhpSFp7B-30" value="" style="endArrow=none;html=1;rounded=0;exitX=1;exitY=0.5;exitDx=0;exitDy=0;" parent="1" source="SoT8vlNb1tdtjhpSFp7B-14" edge="1">
          <mxGeometry width="50" height="50" relative="1" as="geometry">
            <mxPoint x="240" y="280" as="sourcePoint" />
            <mxPoint x="500" y="90" as="targetPoint" />
          </mxGeometry>
        </mxCell>
        <mxCell id="SoT8vlNb1tdtjhpSFp7B-31" value="" style="endArrow=none;html=1;rounded=0;exitX=1;exitY=0.5;exitDx=0;exitDy=0;" parent="1" source="SoT8vlNb1tdtjhpSFp7B-15" edge="1">
          <mxGeometry width="50" height="50" relative="1" as="geometry">
            <mxPoint x="240" y="280" as="sourcePoint" />
            <mxPoint x="500" y="310" as="targetPoint" />
          </mxGeometry>
        </mxCell>
        <mxCell id="SoT8vlNb1tdtjhpSFp7B-32" value="" style="endArrow=none;html=1;rounded=0;exitX=1;exitY=0.5;exitDx=0;exitDy=0;" parent="1" source="SoT8vlNb1tdtjhpSFp7B-16" edge="1">
          <mxGeometry width="50" height="50" relative="1" as="geometry">
            <mxPoint x="240" y="280" as="sourcePoint" />
            <mxPoint x="500" y="320" as="targetPoint" />
          </mxGeometry>
        </mxCell>
        <mxCell id="SoT8vlNb1tdtjhpSFp7B-33" value="" style="endArrow=none;html=1;rounded=0;entryX=1;entryY=0.5;entryDx=0;entryDy=0;" parent="1" target="SoT8vlNb1tdtjhpSFp7B-20" edge="1">
          <mxGeometry width="50" height="50" relative="1" as="geometry">
            <mxPoint x="520" y="510" as="sourcePoint" />
            <mxPoint x="290" y="230" as="targetPoint" />
          </mxGeometry>
        </mxCell>
        <mxCell id="SoT8vlNb1tdtjhpSFp7B-34" value="" style="endArrow=none;html=1;rounded=0;entryX=1;entryY=0.5;entryDx=0;entryDy=0;" parent="1" target="SoT8vlNb1tdtjhpSFp7B-21" edge="1">
          <mxGeometry width="50" height="50" relative="1" as="geometry">
            <mxPoint x="520" y="520" as="sourcePoint" />
            <mxPoint x="290" y="230" as="targetPoint" />
          </mxGeometry>
        </mxCell>
        <mxCell id="SoT8vlNb1tdtjhpSFp7B-35" value="Kupac" style="shape=umlActor;verticalLabelPosition=bottom;verticalAlign=top;html=1;outlineConnect=0;" parent="1" vertex="1">
          <mxGeometry x="20" y="420" width="50" height="90" as="geometry" />
        </mxCell>
        <mxCell id="SoT8vlNb1tdtjhpSFp7B-36" style="edgeStyle=orthogonalEdgeStyle;rounded=0;orthogonalLoop=1;jettySize=auto;html=1;exitX=0.5;exitY=1;exitDx=0;exitDy=0;entryX=0.5;entryY=0;entryDx=0;entryDy=0;" parent="1" source="SoT8vlNb1tdtjhpSFp7B-37" target="SoT8vlNb1tdtjhpSFp7B-39" edge="1">
          <mxGeometry relative="1" as="geometry" />
        </mxCell>
        <mxCell id="SoT8vlNb1tdtjhpSFp7B-37" value="Prijava" style="ellipse;whiteSpace=wrap;html=1;" parent="1" vertex="1">
          <mxGeometry x="157.5" y="360" width="70" height="30" as="geometry" />
        </mxCell>
        <mxCell id="SoT8vlNb1tdtjhpSFp7B-38" style="edgeStyle=orthogonalEdgeStyle;rounded=0;orthogonalLoop=1;jettySize=auto;html=1;exitX=0.5;exitY=1;exitDx=0;exitDy=0;entryX=0.5;entryY=0;entryDx=0;entryDy=0;" parent="1" source="SoT8vlNb1tdtjhpSFp7B-39" target="SoT8vlNb1tdtjhpSFp7B-40" edge="1">
          <mxGeometry relative="1" as="geometry" />
        </mxCell>
        <mxCell id="SoT8vlNb1tdtjhpSFp7B-39" value="&lt;font&gt;Pregled vina&lt;/font&gt;&lt;font style=&quot;font-size: 10px;&quot;&gt;&amp;nbsp;&lt;/font&gt;" style="ellipse;whiteSpace=wrap;html=1;" parent="1" vertex="1">
          <mxGeometry x="157.5" y="410" width="67.5" height="32.5" as="geometry" />
        </mxCell>
        <mxCell id="SoT8vlNb1tdtjhpSFp7B-40" value="&lt;font style=&quot;font-size: 10px;&quot;&gt;Kreiranje narudžbe&lt;/font&gt;" style="ellipse;whiteSpace=wrap;html=1;" parent="1" vertex="1">
          <mxGeometry x="155" y="465" width="67.5" height="30" as="geometry" />
        </mxCell>
        <mxCell id="SoT8vlNb1tdtjhpSFp7B-41" value="&lt;font style=&quot;font-size: 10px;&quot;&gt;Ostavljanje recenzija&lt;/font&gt;" style="ellipse;whiteSpace=wrap;html=1;" parent="1" vertex="1">
          <mxGeometry x="155" y="530" width="65" height="30" as="geometry" />
        </mxCell>
        <mxCell id="SoT8vlNb1tdtjhpSFp7B-42" value="" style="endArrow=none;html=1;rounded=0;entryX=0;entryY=0.5;entryDx=0;entryDy=0;" parent="1" target="SoT8vlNb1tdtjhpSFp7B-37" edge="1">
          <mxGeometry width="50" height="50" relative="1" as="geometry">
            <mxPoint x="80" y="460" as="sourcePoint" />
            <mxPoint x="290" y="240" as="targetPoint" />
          </mxGeometry>
        </mxCell>
        <mxCell id="SoT8vlNb1tdtjhpSFp7B-43" value="" style="endArrow=none;html=1;rounded=0;entryX=0;entryY=0.5;entryDx=0;entryDy=0;" parent="1" target="SoT8vlNb1tdtjhpSFp7B-39" edge="1">
          <mxGeometry width="50" height="50" relative="1" as="geometry">
            <mxPoint x="80" y="470" as="sourcePoint" />
            <mxPoint x="290" y="240" as="targetPoint" />
          </mxGeometry>
        </mxCell>
        <mxCell id="SoT8vlNb1tdtjhpSFp7B-44" value="" style="endArrow=none;html=1;rounded=0;entryX=0;entryY=0.5;entryDx=0;entryDy=0;" parent="1" target="SoT8vlNb1tdtjhpSFp7B-40" edge="1">
          <mxGeometry width="50" height="50" relative="1" as="geometry">
            <mxPoint x="80" y="480" as="sourcePoint" />
            <mxPoint x="290" y="240" as="targetPoint" />
          </mxGeometry>
        </mxCell>
        <mxCell id="SoT8vlNb1tdtjhpSFp7B-45" value="" style="endArrow=none;html=1;rounded=0;entryX=0;entryY=0.5;entryDx=0;entryDy=0;" parent="1" target="SoT8vlNb1tdtjhpSFp7B-41" edge="1">
          <mxGeometry width="50" height="50" relative="1" as="geometry">
            <mxPoint x="80" y="490" as="sourcePoint" />
            <mxPoint x="290" y="240" as="targetPoint" />
          </mxGeometry>
        </mxCell>
        <mxCell id="SoT8vlNb1tdtjhpSFp7B-46" value="&amp;lt;&amp;lt;include&amp;gt;&amp;gt;" style="endArrow=open;endSize=12;dashed=1;html=1;rounded=0;exitX=1;exitY=0.5;exitDx=0;exitDy=0;entryX=-0.02;entryY=0.72;entryDx=0;entryDy=0;entryPerimeter=0;" parent="1" source="SoT8vlNb1tdtjhpSFp7B-40" target="SoT8vlNb1tdtjhpSFp7B-20" edge="1">
          <mxGeometry x="0.0281" y="3" width="160" relative="1" as="geometry">
            <mxPoint x="100" y="300" as="sourcePoint" />
            <mxPoint x="260" y="300" as="targetPoint" />
            <mxPoint as="offset" />
          </mxGeometry>
        </mxCell>
        <mxCell id="SoT8vlNb1tdtjhpSFp7B-47" value="&amp;lt;&amp;lt;include&amp;gt;&amp;gt;" style="endArrow=open;endSize=12;dashed=1;html=1;rounded=0;exitX=0.5;exitY=1;exitDx=0;exitDy=0;entryX=0.5;entryY=0;entryDx=0;entryDy=0;" parent="1" source="SoT8vlNb1tdtjhpSFp7B-20" target="SoT8vlNb1tdtjhpSFp7B-21" edge="1">
          <mxGeometry width="160" relative="1" as="geometry">
            <mxPoint x="100" y="300" as="sourcePoint" />
            <mxPoint x="260" y="300" as="targetPoint" />
          </mxGeometry>
        </mxCell>
        <mxCell id="SoT8vlNb1tdtjhpSFp7B-48" value="&amp;lt;&amp;lt;extend&amp;gt;&amp;gt;" style="endArrow=open;endSize=12;dashed=1;html=1;rounded=0;exitX=0.5;exitY=1;exitDx=0;exitDy=0;entryX=0.5;entryY=0;entryDx=0;entryDy=0;" parent="1" source="SoT8vlNb1tdtjhpSFp7B-15" target="SoT8vlNb1tdtjhpSFp7B-16" edge="1">
          <mxGeometry width="160" relative="1" as="geometry">
            <mxPoint x="100" y="310" as="sourcePoint" />
            <mxPoint x="260" y="310" as="targetPoint" />
          </mxGeometry>
        </mxCell>
        <mxCell id="SoT8vlNb1tdtjhpSFp7B-49" value="&amp;lt;&amp;lt;extend&amp;gt;&amp;gt;" style="endArrow=open;endSize=12;dashed=1;html=1;rounded=0;exitX=0.5;exitY=1;exitDx=0;exitDy=0;entryX=0.5;entryY=0;entryDx=0;entryDy=0;" parent="1" source="SoT8vlNb1tdtjhpSFp7B-40" target="SoT8vlNb1tdtjhpSFp7B-41" edge="1">
          <mxGeometry width="160" relative="1" as="geometry">
            <mxPoint x="100" y="310" as="sourcePoint" />
            <mxPoint x="260" y="310" as="targetPoint" />
          </mxGeometry>
        </mxCell>
        <mxCell id="SoT8vlNb1tdtjhpSFp7B-50" value="" style="endArrow=none;html=1;rounded=0;entryX=1;entryY=0.5;entryDx=0;entryDy=0;exitX=0;exitY=0;exitDx=0;exitDy=0;" parent="1" source="SoT8vlNb1tdtjhpSFp7B-15" target="SoT8vlNb1tdtjhpSFp7B-9" edge="1">
          <mxGeometry width="50" height="50" relative="1" as="geometry">
            <mxPoint x="160" y="340" as="sourcePoint" />
            <mxPoint x="210" y="290" as="targetPoint" />
          </mxGeometry>
        </mxCell>
        <mxCell id="SoT8vlNb1tdtjhpSFp7B-52" value="&lt;font style=&quot;font-size: 10px;&quot;&gt;Automatsko praćenje zaliha&lt;/font&gt;" style="ellipse;whiteSpace=wrap;html=1;" parent="1" vertex="1">
          <mxGeometry x="352" y="550" width="78" height="40" as="geometry" />
        </mxCell>
        <mxCell id="SoT8vlNb1tdtjhpSFp7B-53" value="" style="endArrow=none;html=1;rounded=0;exitX=1;exitY=0.5;exitDx=0;exitDy=0;" parent="1" source="SoT8vlNb1tdtjhpSFp7B-52" edge="1">
          <mxGeometry width="50" height="50" relative="1" as="geometry">
            <mxPoint x="250" y="440" as="sourcePoint" />
            <mxPoint x="520" y="530" as="targetPoint" />
          </mxGeometry>
        </mxCell>
        <mxCell id="SoT8vlNb1tdtjhpSFp7B-54" value="&lt;font style=&quot;font-size: 10px;&quot;&gt;Pregled povijesti narudžbi&lt;/font&gt;" style="ellipse;whiteSpace=wrap;html=1;" parent="1" vertex="1">
          <mxGeometry x="152.5" y="570" width="67.5" height="40" as="geometry" />
        </mxCell>
        <mxCell id="SoT8vlNb1tdtjhpSFp7B-55" value="" style="endArrow=none;html=1;rounded=0;entryX=0;entryY=0;entryDx=0;entryDy=0;" parent="1" target="SoT8vlNb1tdtjhpSFp7B-54" edge="1">
          <mxGeometry width="50" height="50" relative="1" as="geometry">
            <mxPoint x="80" y="500" as="sourcePoint" />
            <mxPoint x="150" y="570" as="targetPoint" />
          </mxGeometry>
        </mxCell>
      </root>
    </mxGraphModel>
  </diagram>
</mxfile>
